<svg xmlns="http://www.w3.org/2000/svg" width="170" height="180" viewBox="0 0 170 180" fill="none"><g clip-path="url(#clip0_94_85)"><path d="M73.6354 171.017H88.8458L91.9517 179.04L108.105 179.004V164.704H116.202C119.129 164.704 119.088 168.165 119.088 168.165L119.064 179.004L135.244 179.04L138.421 170.951H154.067L157.242 179.073H167.902L151.976 143.246H140.295L129.205 169.176C129.205 160.034 124.652 160.255 124.652 160.255C124.652 160.255 128.805 158.951 128.88 152.158C128.984 142.44 120.206 143.237 120.206 143.237L98.9393 143.246V150.708L116.202 150.752C119.088 150.752 119.088 153.644 119.088 153.644C119.088 157.579 116.164 157.146 116.164 157.146L98.9393 157.105L98.9632 169.245L87.2585 143.273L75.1749 143.246L64.4966 168.744C64.4966 168.744 65.1798 160.795 59.5438 160.795C59.5438 160.795 63.6642 158.695 63.6254 152.447C63.5717 142.604 54.9192 143.246 54.9192 143.246H33.5089V150.717H51.4881C54.5194 150.717 54.3404 153.927 54.3404 153.927C54.3404 157.364 51.4493 157.176 51.4493 157.176H33.5298V179.04H70.5265M81.2197 151.328L85.9189 163.504H76.5265L81.2197 151.328ZM146.188 151.343L150.887 163.519H141.492L146.188 151.343ZM0 179.04L28.2697 179.004L28.2905 171.629L9.24918 171.671V164.555H27.7117V157.146H9.24918V150.717H28.2697L28.2905 143.273H0V179.04ZM52.225 164.704C53.7646 164.704 55.0147 166.237 55.0147 168.129C55.0147 170.015 53.7646 171.554 52.225 171.554L42.7938 171.542L42.8147 164.713" fill="#0B0A36"></path><mask id="mask0_94_85" style="mask-type:luminance" maskUnits="userSpaceOnUse" x="-1" y="0" width="171" height="182"><path d="M-0.00292969 5.49516e-05H169.147V181.836H-0.00292969V5.49516e-05Z" fill="white"></path></mask><g mask="url(#mask0_94_85)"><path d="M127.641 113.854C90.367 105.306 50.7537 113.854 50.7537 113.854C92.9329 121.668 127.641 113.854 127.641 113.854ZM137.982 90.7551C92.1483 80.2409 50.6344 90.7551 50.6344 90.7551C103.074 100.467 137.982 90.7551 137.982 90.7551ZM148.738 63.1866C102.63 52.6097 52.9556 63.1866 52.9556 63.1866C109.402 73.6411 148.738 63.1866 148.738 63.1866ZM169.149 74.0559C145.591 74.1155 117.366 77.8003 117.366 77.8003C117.366 77.8003 145.841 81.7207 169.134 81.7207L169.14 99.7805C141.849 99.7835 113.445 102.994 113.445 102.994C113.445 102.994 141.076 105.631 169.122 105.631V136.855L0.0533208 136.864V128.489C39.8218 128.489 64.9557 122.96 64.9557 122.96C64.9557 122.96 39.8367 117.733 0.0294537 117.733V109.415C54.4504 109.415 78.7399 101.571 78.7399 101.571C78.7399 101.571 54.4683 95.0933 0.041393 95.0933V84.6984C74.909 85.0534 97.1637 76.4338 97.1637 76.4338C97.1637 76.4338 74.8284 69.485 0.0205078 69.4253V-0.000201179H169.122V47.3466C146.897 47.3466 119.621 51.1776 119.621 51.1776C119.621 51.1776 146.784 54.9011 169.122 54.9011" fill="#0B0A36"></path></g></g><defs><clipPath id="clip0_94_85"><rect width="169.147" height="179.073" fill="white"></rect></clipPath></defs></svg>