<svg xmlns="http://www.w3.org/2000/svg" width="177" height="53" viewBox="0 0 177 53" fill="none"><mask id="mask0_94_78" style="mask-type:alpha" maskUnits="userSpaceOnUse" x="3" y="3" width="171" height="50"><path fill-rule="evenodd" clip-rule="evenodd" d="M9.39218 17.957C9.44018 18.179 9.48818 18.457 9.75418 18.789C10.2592 19.399 11.3672 19.677 12.3312 19.677C13.4642 19.677 14.5712 19.317 14.5712 18.401C14.5767 18.2196 14.5171 18.0423 14.4032 17.901C14.0892 17.485 13.1982 17.347 11.4162 17.041C10.4042 16.874 9.41618 16.68 8.42818 16.431C5.94818 15.766 4.26118 15.044 4.26118 12.269C4.26118 7.579 10.5012 7.524 12.2342 7.524C15.9202 7.524 19.5102 8.551 20.3282 12.408L14.6922 12.684C14.4522 11.214 12.4042 11.104 11.8742 11.104C10.7892 11.104 9.85018 11.464 9.85018 12.269C9.85018 12.741 10.1872 12.989 10.9342 13.212C11.6332 13.434 15.2222 13.906 16.0402 14.044C17.9672 14.405 20.3532 14.877 20.3532 17.846C20.3532 19.289 19.7262 20.204 19.1482 20.87C18.0882 22.008 16.2822 23.201 12.2342 23.201C9.48818 23.201 7.00718 22.646 5.65818 21.841C4.18818 20.954 3.77918 19.761 3.65918 18.234L9.39218 17.957ZM27.6742 15.376C27.6742 17.124 28.7592 18.733 30.6612 18.733C32.5892 18.733 33.5762 17.181 33.5762 15.376C33.5762 13.822 32.7092 11.963 30.4922 12.102C28.1562 12.241 27.6742 14.267 27.6742 15.376ZM27.6502 9.495C28.3002 8.885 29.5772 7.662 32.2992 7.662C35.8162 7.662 39.3092 10.077 39.3092 15.515C39.3092 20.01 36.6112 23.256 32.2992 23.256C29.8902 23.256 28.5892 22.258 27.6492 21.508V27.891H22.0372V8.024H27.6742V9.355L27.6502 9.495Z" fill="#E83D3D"></path><mask id="mask1_94_78" style="mask-type:luminance" maskUnits="userSpaceOnUse" x="0" y="0" width="177" height="45"><path d="M0 44.488H176.994V0H0V44.488Z" fill="#E83D3D"></path></mask><g mask="url(#mask1_94_78)"><path fill-rule="evenodd" clip-rule="evenodd" d="M40.8043 22.729H46.4403V8.05201H40.8043V22.729ZM40.7793 6.55401H46.4403V3.14101H40.7803L40.7793 6.55401ZM54.4853 10.354C54.9028 9.59388 55.5089 8.95401 56.2453 8.49601C57.3053 7.82901 58.1713 7.77501 58.8953 7.74601V13.545C58.4482 13.4785 57.9972 13.4418 57.5453 13.435C56.0273 13.435 55.4253 13.822 55.0653 14.211C54.5103 14.794 54.4853 15.488 54.4623 16.153V22.729H48.8013V8.02401H54.4853V10.354ZM67.1793 16.236C66.3603 16.32 64.8673 16.486 64.8673 17.79C64.8673 18.234 65.1573 19.26 66.8673 19.26C67.8293 19.2586 68.7687 18.9688 69.5643 18.428C70.7203 17.679 70.9143 16.791 71.0823 15.988C70.1423 16.042 68.1423 16.125 67.1793 16.236ZM59.6633 12.63C59.8083 11.686 60.0733 9.96601 61.6153 8.88501C62.8193 8.05201 65.0353 7.52501 68.0473 7.52501C70.6003 7.52501 73.0333 7.77501 74.4313 8.57901C76.5013 9.71601 76.5013 11.908 76.5013 12.906V20.592C76.5263 21.73 76.6473 22.146 77.2013 22.757H71.2983C71.1543 22.175 71.1313 22.007 71.0823 21.342C69.6123 22.063 67.4203 23.173 64.7463 23.173C63.3003 23.173 61.7823 22.896 60.6263 21.869C59.6403 21.036 59.1333 19.844 59.1333 18.456C59.1333 17.596 59.3503 16.625 59.8083 15.904C60.2183 15.265 60.9653 14.628 62.0723 14.239C64.1923 13.489 68.2153 13.406 70.9853 13.351C70.9853 12.963 70.9853 12.575 70.6963 12.157C70.4803 11.853 69.9973 11.297 68.2393 11.297C67.9503 11.297 67.0593 11.354 66.4323 11.52C65.4213 11.797 65.2763 12.24 65.1323 12.63H59.6633Z" fill="#E83D3D"></path></g><mask id="mask2_94_78" style="mask-type:luminance" maskUnits="userSpaceOnUse" x="0" y="0" width="177" height="45"><path d="M0 44.488H176.994V0H0V44.488Z" fill="#E83D3D"></path></mask><g mask="url(#mask2_94_78)"><path fill-rule="evenodd" clip-rule="evenodd" d="M85.1853 8.13499L87.8453 12L91.1353 8.13499L97.7113 8.16499L91.2263 15.148L97.8903 22.771H91.0343L88.1083 18.724L72.2623 39.636H61.6143L85.0273 15.439L78.3033 8.13499H85.1853Z" fill="#E83D3D"></path></g><mask id="mask3_94_78" style="mask-type:luminance" maskUnits="userSpaceOnUse" x="0" y="0" width="177" height="45"><path d="M0 44.488H176.994V0H0V44.488Z" fill="#E83D3D"></path></mask><g mask="url(#mask3_94_78)"><path fill-rule="evenodd" clip-rule="evenodd" d="M92.8404 34.863C92.8904 35.085 92.9384 35.363 93.2024 35.696C93.7084 36.306 94.8164 36.584 95.7794 36.584C96.9124 36.584 98.0194 36.223 98.0194 35.308C98.0251 35.1266 97.9655 34.9492 97.8514 34.808C97.5384 34.392 96.6474 34.253 94.8644 33.948C93.8608 33.7872 92.8645 33.5833 91.8784 33.337C89.3964 32.671 87.7094 31.95 87.7094 29.177C87.7094 24.487 93.9494 24.432 95.6834 24.432C99.3694 24.432 102.958 25.458 103.777 29.315L98.1404 29.592C97.9004 28.122 95.8514 28.012 95.3224 28.012C94.2384 28.012 93.2994 28.372 93.2994 29.176C93.2994 29.648 93.6364 29.897 94.3824 30.12C95.0814 30.342 98.6704 30.813 99.4904 30.951C101.416 31.312 103.802 31.784 103.802 34.753C103.802 36.195 103.175 37.11 102.597 37.776C101.537 38.914 99.7314 40.108 95.6834 40.108C92.9384 40.108 90.4554 39.552 89.1074 38.748C87.6374 37.86 87.2284 36.667 87.1074 35.141L92.8414 34.863H92.8404ZM112.904 33.143C112.084 33.227 110.592 33.393 110.592 34.697C110.592 35.141 110.881 36.167 112.591 36.167C113.554 36.1664 114.494 35.8765 115.289 35.335C116.445 34.586 116.638 33.698 116.806 32.895C115.866 32.949 113.867 33.033 112.904 33.143ZM105.388 29.537C105.533 28.594 105.798 26.873 107.339 25.792C108.543 24.959 110.76 24.432 113.772 24.432C116.325 24.432 118.758 24.682 120.155 25.486C122.227 26.624 122.227 28.816 122.227 29.814V37.5C122.251 38.638 122.371 39.054 122.925 39.665H117.024C116.878 39.082 116.854 38.915 116.806 38.249C115.336 38.971 113.144 40.08 110.471 40.08C109.025 40.08 107.508 39.804 106.352 38.777C105.364 37.944 104.858 36.752 104.858 35.363C104.858 34.503 105.075 33.533 105.533 32.812C105.942 32.173 106.689 31.536 107.796 31.148C109.917 30.398 113.94 30.315 116.71 30.258C116.71 29.871 116.71 29.483 116.42 29.066C116.204 28.761 115.723 28.206 113.964 28.206C113.674 28.206 112.784 28.261 112.157 28.428C111.145 28.705 111.001 29.15 110.856 29.538L105.388 29.537ZM130.318 27.262C130.736 26.5012 131.342 25.8607 132.078 25.402C133.138 24.737 134.004 24.682 134.728 24.654V30.453C134.281 30.3858 133.83 30.3484 133.378 30.341C131.86 30.341 131.258 30.729 130.898 31.119C130.343 31.701 130.318 32.394 130.295 33.06V39.636H124.634V24.932H130.318V27.262ZM141.158 32.2C141.158 34.559 142.555 36.25 144.892 36.25C145.542 36.25 146.434 36.112 147.156 35.53C147.856 35.002 148.048 34.447 148.241 33.92L153.902 34.143C153.685 34.974 153.228 36.528 151.734 37.888C149.59 39.857 146.579 40.108 144.483 40.108C141.688 40.108 138.483 39.414 136.629 37.055C135.738 35.945 135.088 34.198 135.088 32.312C135.088 29.314 136.629 27.372 137.688 26.457C139.617 24.765 142.339 24.265 144.892 24.265C147.879 24.265 150.578 25.181 152.216 27.095C153.131 28.205 153.396 29.175 153.565 29.731L147.952 30.314C147.566 28.954 146.169 28.205 144.796 28.205C142.7 28.205 141.158 29.759 141.158 32.2ZM160.548 32.2C160.548 35.168 162.548 36.056 164.235 36.056C165.391 36.056 167.704 35.39 167.704 32.2C167.704 29.787 166.259 28.316 163.874 28.4C161.319 28.482 160.548 30.563 160.548 32.2ZM173.558 32.255C173.558 37.445 169.39 40.025 164.115 40.025C159.634 40.025 154.671 38.082 154.671 32.312C154.671 26.79 159.176 24.626 163.705 24.542C171.197 24.432 173.558 28.538 173.558 32.255Z" fill="#E83D3D"></path></g><mask id="mask4_94_78" style="mask-type:luminance" maskUnits="userSpaceOnUse" x="4" y="46" width="169" height="7"><path d="M4 46H173V53H4V46Z" fill="#E83D3D"></path></mask><g mask="url(#mask4_94_78)"><path fill-rule="evenodd" clip-rule="evenodd" d="M170.286 50.984C170.426 51.021 170.667 51.077 170.667 51.337C170.667 51.413 170.65 51.719 170.097 51.719C169.971 51.719 169.78 51.71 169.591 51.673C169.127 51.578 169.078 51.319 169.053 51.17L167.076 51.255C167.109 51.477 167.151 51.71 167.234 51.895C167.456 52.407 168.192 52.935 169.748 52.935C170.368 52.935 170.848 52.889 171.303 52.759C172.114 52.519 172.677 52.025 172.677 51.208C172.677 50.902 172.577 50.584 172.404 50.37C172.107 50 171.61 49.905 170.873 49.766L169.946 49.59C169.814 49.561 169.591 49.486 169.591 49.281C169.591 49.17 169.658 48.891 170.221 48.891C170.972 48.891 171.171 49.17 171.171 49.441L173 49.366C172.966 49.133 172.933 48.9 172.85 48.706C172.66 48.28 172.197 48.009 171.75 47.86C171.362 47.73 170.99 47.72 170.6 47.72C169.748 47.72 169.087 47.768 168.532 48.074C167.78 48.484 167.697 49.124 167.697 49.366C167.697 49.635 167.796 49.914 167.953 50.119C168.275 50.529 168.83 50.659 169.277 50.761L170.286 50.984ZM161.889 47.86H160L158.984 52.787H160.878L161.366 50.407C161.482 49.979 161.689 49.197 162.449 49.197C163.029 49.197 163.154 49.681 163.154 49.951C163.153 50.0609 163.139 50.1704 163.112 50.277L162.598 52.787H164.509L165.072 50.054C165.12 49.8054 165.148 49.5532 165.155 49.3C165.155 48.287 164.517 47.73 163.567 47.73C163.054 47.73 162.417 47.926 162.003 48.297C161.913 48.3793 161.827 48.4661 161.746 48.557L161.888 47.86H161.889ZM153.905 49.042C154.847 49.031 155.013 49.784 155.013 50.157C155.013 50.622 154.757 51.578 153.656 51.578C152.853 51.578 152.53 51.03 152.53 50.472C152.53 50.426 152.53 49.059 153.905 49.042ZM154.103 47.711C153.391 47.701 152.679 47.778 152.035 48.092C151.563 48.335 151.116 48.705 150.859 49.208C150.662 49.5867 150.563 50.0083 150.569 50.435C150.569 50.992 150.727 51.578 151.058 51.988C151.314 52.322 151.678 52.536 152.058 52.685C152.538 52.861 153.051 52.918 153.548 52.918C155.815 52.918 157.04 51.608 157.04 50.072C157.04 49.607 156.924 49.142 156.683 48.78C155.997 47.73 154.599 47.721 154.103 47.711ZM145.689 52.787H147.59L148.6 47.86H146.697L145.689 52.787ZM146.797 47.367H148.707L148.939 46.224H147.029L146.797 47.367ZM141.551 48.083H140.931L140.666 49.347H141.287L140.891 51.327C140.861 51.4772 140.844 51.6298 140.84 51.783C140.84 52.684 141.502 52.805 142.42 52.805C142.726 52.805 143.041 52.797 143.355 52.787L143.627 51.44C143.197 51.449 142.867 51.46 142.867 51.021C142.867 50.957 142.883 50.891 142.892 50.817L143.198 49.347H143.941L144.19 48.083H143.454L143.736 46.707H141.848L141.551 48.083ZM132.641 50.685C132.613 50.8731 132.596 51.0628 132.591 51.253C132.591 51.726 132.764 52.237 133.079 52.536C133.385 52.833 133.815 52.918 134.237 52.918C135.097 52.918 135.487 52.582 136.016 52.118L135.874 52.787H137.729L138.745 47.86H136.901L136.463 49.98C136.321 50.519 136.09 51.449 135.197 51.449C134.932 51.449 134.741 51.337 134.651 51.226C134.469 51.013 134.534 50.556 134.617 50.148L135.081 47.86H133.211L132.641 50.685ZM127.611 52.787H129.529L130.877 46.224H128.958L127.611 52.787ZM122.538 49.042C123.483 49.031 123.648 49.784 123.648 50.157C123.648 50.622 123.391 51.578 122.291 51.578C121.487 51.578 121.164 51.03 121.164 50.472C121.164 50.426 121.164 49.059 122.538 49.042ZM122.737 47.711C122.025 47.701 121.314 47.778 120.669 48.092C120.196 48.335 119.75 48.705 119.495 49.208C119.295 49.571 119.204 49.999 119.204 50.435C119.204 50.992 119.361 51.578 119.693 51.988C119.948 52.322 120.313 52.536 120.693 52.685C121.173 52.861 121.685 52.918 122.182 52.918C124.449 52.918 125.673 51.608 125.673 50.072C125.673 49.607 125.558 49.142 125.318 48.78C124.631 47.73 123.233 47.721 122.737 47.711ZM110.73 50.779C110.73 51.226 110.747 51.773 111.211 52.249C111.492 52.536 112.236 53 113.676 53C114.43 53 115.099 52.9 115.67 52.592C116.688 52.043 116.902 51.142 116.902 50.659C116.902 50.379 116.844 50.101 116.72 49.849C116.455 49.31 115.967 49.162 115.364 48.94L114.131 48.548C113.824 48.445 113.411 48.286 113.411 47.962C113.411 47.71 113.684 47.449 114.321 47.449C115.008 47.449 115.397 47.692 115.348 48.101L117.225 47.934C117.225 47.477 117.208 46.735 116.183 46.278C115.677 46.056 115.131 46 114.577 46C113.544 46 112.947 46.16 112.501 46.391C111.839 46.735 111.418 47.357 111.418 48.166C111.418 48.361 111.45 48.586 111.533 48.798C111.79 49.468 112.419 49.693 112.857 49.849L113.892 50.193C114.512 50.399 114.858 50.473 114.858 50.873C114.858 51.291 114.495 51.533 113.874 51.552C113.535 51.562 113.138 51.514 112.882 51.3C112.658 51.106 112.625 50.864 112.625 50.686L110.73 50.779ZM97.534 47.86H95.656L94.64 52.788H96.534L97.031 50.389C97.155 49.841 97.295 49.189 97.958 49.189C98.462 49.189 98.528 49.58 98.528 49.749C98.528 49.86 98.513 49.961 98.462 50.166L97.924 52.788H99.828L100.391 50.083C100.465 49.775 100.605 49.189 101.226 49.189C101.457 49.189 101.813 49.255 101.813 49.756C101.813 49.877 101.788 50.016 101.739 50.221L101.217 52.788H103.094L103.624 50.193C103.724 49.663 103.765 49.413 103.765 49.18C103.765 48.196 103.103 47.731 102.268 47.731C101.293 47.731 100.762 48.308 100.513 48.567C100.398 48.336 100.1 47.722 99.133 47.722C98.222 47.722 97.669 48.27 97.411 48.521L97.535 47.861L97.534 47.86ZM90.41 50.603C90.127 51.774 88.235 51.934 88.235 51.209C88.235 50.594 89.648 50.603 90.41 50.603ZM88.7 49.376C88.84 48.987 89.245 48.956 89.708 48.947C90.113 48.94 90.735 49.032 90.602 49.694C89.112 49.767 87.459 49.684 86.755 50.287C86.5858 50.4361 86.4499 50.6191 86.356 50.8241C86.2621 51.0291 86.2124 51.2515 86.21 51.477C86.21 52.351 86.912 52.937 87.979 52.937C89.07 52.937 89.715 52.508 90.127 52.231C90.0996 52.4155 90.0969 52.6028 90.119 52.788H92.165C92.065 52.5206 92.0476 52.2294 92.115 51.952L92.487 50.102C92.545 49.824 92.604 49.534 92.604 49.238C92.604 48.01 91.717 47.712 89.971 47.712C89.201 47.712 88.012 47.749 87.374 48.354C87.052 48.634 86.954 48.919 86.814 49.376H88.7ZM79.995 49.796C80.086 49.572 80.202 49.301 80.616 49.134C80.781 49.06 80.962 49.032 81.144 49.032C81.997 49.032 82.163 49.554 82.244 49.796H79.995ZM84.165 50.752C84.14 50.252 84.123 49.749 83.949 49.301C83.7611 48.8392 83.4348 48.4469 83.015 48.178C82.451 47.815 81.782 47.722 81.095 47.722C80.467 47.722 79.847 47.815 79.292 48.112C78.424 48.577 77.844 49.47 77.844 50.463C77.844 50.975 78.001 51.497 78.283 51.897C78.581 52.295 79.018 52.565 79.466 52.724C79.913 52.873 80.376 52.919 80.831 52.919C81.485 52.919 82.312 52.834 82.989 52.426C83.535 52.092 83.709 51.738 83.883 51.404L81.873 51.264C81.641 51.469 81.443 51.654 80.981 51.654C80.7426 51.6578 80.5076 51.597 80.301 51.478C80.019 51.291 79.954 51.087 79.863 50.752H84.165ZM73.408 48.083H72.788L72.523 49.347H73.144L72.746 51.327C72.722 51.477 72.696 51.624 72.696 51.783C72.696 52.684 73.358 52.805 74.278 52.805C74.583 52.805 74.898 52.797 75.212 52.787L75.484 51.44C75.054 51.449 74.724 51.46 74.724 51.021C74.724 50.957 74.74 50.891 74.748 50.817L75.054 49.347H75.799L76.047 48.083H75.311L75.592 46.707H73.707L73.408 48.083ZM64.101 50.779C64.101 51.226 64.117 51.773 64.581 52.249C64.862 52.536 65.606 53 67.045 53C67.799 53 68.469 52.9 69.04 52.592C70.057 52.043 70.271 51.142 70.271 50.659C70.271 50.379 70.214 50.101 70.089 49.849C69.825 49.31 69.337 49.162 68.733 48.94L67.5 48.548C67.193 48.445 66.78 48.286 66.78 47.962C66.78 47.71 67.053 47.449 67.69 47.449C68.376 47.449 68.765 47.692 68.716 48.101L70.594 47.934C70.594 47.477 70.576 46.735 69.552 46.278C69.047 46.056 68.5 46 67.947 46C66.913 46 66.318 46.16 65.871 46.391C65.209 46.735 64.787 47.357 64.787 48.166C64.787 48.361 64.82 48.586 64.902 48.798C65.159 49.468 65.788 49.693 66.227 49.849L67.261 50.193C67.881 50.399 68.229 50.473 68.229 50.873C68.229 51.291 67.864 51.533 67.244 51.552C66.905 51.562 66.508 51.514 66.251 51.3C66.028 51.106 65.995 50.864 65.995 50.686L64.101 50.779ZM56.43 47.86H54.527L53.52 52.788H55.43C55.545 52.168 55.81 50.852 55.934 50.405C56.01 50.108 56.15 49.598 56.969 49.598C57.193 49.598 57.399 49.647 57.605 49.693L58.003 47.749C57.903 47.741 57.805 47.722 57.706 47.722C56.969 47.722 56.489 48.344 56.274 48.633L56.431 47.861L56.43 47.86ZM48.438 49.043C49.381 49.032 49.547 49.785 49.547 50.158C49.547 50.623 49.29 51.579 48.189 51.579C47.386 51.579 47.064 51.031 47.064 50.473C47.064 50.427 47.064 49.06 48.438 49.043ZM48.636 47.712C47.926 47.702 47.213 47.779 46.569 48.093C46.097 48.336 45.649 48.706 45.393 49.209C45.1963 49.5877 45.0969 50.0093 45.104 50.436C45.104 50.993 45.262 51.579 45.591 51.989C45.848 52.323 46.212 52.537 46.592 52.686C47.072 52.862 47.585 52.919 48.082 52.919C50.35 52.919 51.572 51.609 51.572 50.073C51.572 49.608 51.458 49.143 51.217 48.781C50.532 47.731 49.132 47.721 48.637 47.711L48.636 47.712ZM42.605 46.224C42.1 46.204 41.67 46.27 41.322 46.604C41.165 46.762 41.025 47.041 40.951 47.367L40.776 48.101H40.114L39.858 49.365H40.521L39.817 52.787H41.729L42.43 49.357H43.183L43.448 48.101H42.621C42.704 47.675 42.753 47.377 43.217 47.377C43.34 47.377 43.473 47.395 43.588 47.413L43.828 46.224H42.605ZM30.64 48.083H30.02L29.755 49.347H30.375L29.979 51.327C29.954 51.477 29.929 51.624 29.929 51.783C29.929 52.684 30.591 52.805 31.509 52.805C31.815 52.805 32.129 52.797 32.444 52.787L32.716 51.44C32.286 51.449 31.955 51.46 31.955 51.021C31.955 50.957 31.971 50.891 31.979 50.817L32.287 49.347H33.031L33.279 48.083H32.542L32.824 46.707H30.937L30.64 48.083ZM25.08 50.983C25.22 51.021 25.46 51.077 25.46 51.337C25.46 51.413 25.444 51.719 24.89 51.719C24.766 51.719 24.575 51.71 24.385 51.673C23.922 51.578 23.871 51.319 23.848 51.17L21.87 51.255C21.903 51.477 21.945 51.71 22.028 51.895C22.251 52.407 22.988 52.935 24.541 52.935C25.162 52.935 25.643 52.889 26.097 52.759C26.907 52.519 27.47 52.025 27.47 51.208C27.47 50.902 27.371 50.584 27.198 50.37C26.9 50 26.403 49.905 25.668 49.766L24.741 49.59C24.608 49.561 24.385 49.486 24.385 49.281C24.385 49.17 24.451 48.891 25.013 48.891C25.767 48.891 25.965 49.17 25.965 49.441L27.793 49.366C27.76 49.133 27.728 48.9 27.645 48.706C27.454 48.28 26.991 48.009 26.543 47.86C26.154 47.73 25.783 47.72 25.393 47.72C24.541 47.72 23.88 47.768 23.325 48.074C22.573 48.484 22.491 49.124 22.491 49.366C22.491 49.635 22.591 49.914 22.747 50.119C23.07 50.529 23.623 50.659 24.071 50.761L25.081 50.984L25.08 50.983ZM19.28 47.86H17.377L16.37 52.787H18.28C18.395 52.167 18.66 50.851 18.784 50.404C18.86 50.107 18.999 49.597 19.819 49.597C20.042 49.597 20.249 49.646 20.456 49.692L20.852 47.748C20.752 47.74 20.654 47.721 20.555 47.721C19.819 47.721 19.339 48.343 19.124 48.632L19.281 47.86H19.28ZM11.794 52.787H13.695L14.706 47.86H12.803L11.794 52.787ZM12.902 47.367H14.812L15.044 46.224H13.134L12.902 47.367ZM4 52.787H6.052L6.539 50.444H9.873L10.179 48.976H6.846L7.11 47.701H10.643L10.949 46.224H5.357L4 52.787Z" fill="#E83D3D"></path></g></mask><g mask="url(#mask0_94_78)"><rect x="-6" y="-4" width="200" height="69" fill="#0B0A36"></rect></g></svg>