<?xml version="1.0" encoding="UTF-8" standalone="no"?>
<svg
   version="1.2"
   viewBox="0 0 1552 677"
   width="1552"
   height="677"
   id="svg56"
   sodipodi:docname="MTD_BIG.D.svg"
   inkscape:version="1.3.2 (091e20e, 2023-11-25, custom)"
   xmlns:inkscape="http://www.inkscape.org/namespaces/inkscape"
   xmlns:sodipodi="http://sodipodi.sourceforge.net/DTD/sodipodi-0.dtd"
   xmlns="http://www.w3.org/2000/svg"
   xmlns:svg="http://www.w3.org/2000/svg">
  <defs
     id="defs56" />
  <sodipodi:namedview
     id="namedview56"
     pagecolor="#ffffff"
     bordercolor="#000000"
     borderopacity="0.25"
     inkscape:showpageshadow="2"
     inkscape:pageopacity="0.0"
     inkscape:pagecheckerboard="0"
     inkscape:deskcolor="#d1d1d1"
     inkscape:zoom="0.55090206"
     inkscape:cx="776"
     inkscape:cy="338.53567"
     inkscape:window-width="1366"
     inkscape:window-height="745"
     inkscape:window-x="-8"
     inkscape:window-y="755"
     inkscape:window-maximized="1"
     inkscape:current-layer="svg56" />
  <style
     id="style1">.a{fill:none;stroke:#62ba46;stroke-miterlimit:3.86;stroke-width:3.6}.b{fill:#62ba46}.c{fill:#034ea1}</style>
  <path
     class="a"
     d="m380.8 480.2l1358.6-1346.8"
     id="path1"
     style="fill:#ffffff;stroke:#ffffff;stroke-opacity:1" />
  <path
     class="a"
     d="m396.5 496.2l1374.7-1362.8"
     id="path2"
     style="fill:#ffffff;stroke:#ffffff;stroke-opacity:1" />
  <path
     class="a"
     d="m413 511.3l1389.9-1377.9"
     id="path3"
     style="fill:#ffffff;stroke:#ffffff;stroke-opacity:1" />
  <path
     class="a"
     d="m428.1 527l1406.1-1393.6"
     id="path4"
     style="fill:#ffffff;stroke:#ffffff;stroke-opacity:1" />
  <path
     class="a"
     d="m444.5 542.9l1421.9-1409.5"
     id="path5"
     style="fill:#ffffff;stroke:#ffffff;stroke-opacity:1" />
  <path
     class="a"
     d="m460.1 558.3l1437.6-1424.9"
     id="path6"
     style="fill:#ffffff;stroke:#ffffff;stroke-opacity:1" />
  <path
     class="a"
     d="m476.4 574.4l1453.5-1441"
     id="path7"
     style="fill:#ffffff;stroke:#ffffff;stroke-opacity:1" />
  <path
     class="a"
     d="m492 590.3l1469.7-1456.9"
     id="path8"
     style="fill:#ffffff;stroke:#ffffff;stroke-opacity:1" />
  <path
     class="a"
     d="m507.8 605.4l1485.2-1472"
     id="path9"
     style="fill:#ffffff;stroke:#ffffff;stroke-opacity:1" />
  <path
     class="a"
     d="m523.4 621.4l1501.4-1488"
     id="path10"
     style="fill:#ffffff;stroke:#ffffff;stroke-opacity:1" />
  <path
     class="a"
     d="m539.7 637.5l1517.3-1504.1"
     id="path11"
     style="fill:#ffffff;stroke:#ffffff;stroke-opacity:1" />
  <path
     class="a"
     d="m555.6 653.2l1533.1-1519.8"
     id="path12"
     style="fill:#ffffff;stroke:#ffffff;stroke-opacity:1" />
  <path
     class="a"
     d="m571.3 669.1l1549.2-1535.7"
     id="path13"
     style="fill:#ffffff;stroke:#ffffff;stroke-opacity:1" />
  <path
     class="a"
     d="m365.1 463.9l1342.3-1330.5"
     id="path14"
     style="fill:#ffffff;stroke:#ffffff;stroke-opacity:1" />
  <path
     class="a"
     d="m349.2 448.6l1326.7-1315.2"
     id="path15"
     style="fill:#ffffff;stroke:#ffffff;stroke-opacity:1" />
  <path
     class="a"
     d="m336 430.2l1308.1-1296.8"
     id="path16"
     style="fill:#ffffff;stroke:#ffffff;stroke-opacity:1" />
  <path
     class="a"
     d="m317.4 417.1l1295-1283.7"
     id="path17"
     style="fill:#ffffff;stroke:#ffffff;stroke-opacity:1" />
  <path
     class="a"
     d="m301.7 401.2l1278.9-1267.8"
     id="path18"
     style="fill:#ffffff;stroke:#ffffff;stroke-opacity:1" />
  <path
     class="a"
     d="m286 385.3l1262.9-1251.9"
     id="path19"
     style="fill:#ffffff;stroke:#ffffff;stroke-opacity:1" />
  <path
     class="a"
     d="m269.7 370l1247.4-1236.6"
     id="path20"
     style="fill:#ffffff;stroke:#ffffff;stroke-opacity:1" />
  <path
     class="a"
     d="m254.1 354.1l1231.2-1220.7"
     id="path21"
     style="fill:#ffffff;stroke:#ffffff;stroke-opacity:1" />
  <path
     class="a"
     d="m238 338.1l1215.3-1204.7"
     id="path22"
     style="fill:#ffffff;stroke:#ffffff;stroke-opacity:1" />
  <path
     class="a"
     d="m222.2 322.2l1199.4-1188.8"
     id="path23"
     style="fill:#ffffff;stroke:#ffffff;stroke-opacity:1" />
  <path
     class="a"
     d="m206.5 306.7l1183.6-1173.3"
     id="path24"
     style="fill:#ffffff;stroke:#ffffff;stroke-opacity:1" />
  <path
     class="a"
     d="m190.7 290.9l1167.7-1157.5"
     id="path25"
     style="fill:#ffffff;stroke:#ffffff;stroke-opacity:1" />
  <path
     class="a"
     d="m174.7 275.2l1151.9-1141.8"
     id="path26"
     style="fill:#ffffff;stroke:#ffffff;stroke-opacity:1" />
  <path
     fill-rule="evenodd"
     class="b"
     d="m674 158l-235.1 233.1 122.5-100.8h-15.4l10.9-6.3 9-9 6.3-10.7v20.3z"
     id="path27"
     style="fill:#ffffff;stroke:#ffffff;stroke-opacity:1" />
  <path
     fill-rule="evenodd"
     class="b"
     d="m423.2 375.4l103.9-85.1h-13.2l11.3-7.2 41-40.6 6-10.2v18l86.3-108.3z"
     id="path28"
     style="fill:#ffffff;stroke:#ffffff;stroke-opacity:1" />
  <path
     fill-rule="evenodd"
     class="b"
     d="m391.5 344l66.2-53.7h-8.4l5.9-3.6 111-109.9 6-8v10.6l52.6-67.1z"
     id="path29"
     style="fill:#ffffff;stroke:#ffffff;stroke-opacity:1" />
  <path
     fill-rule="evenodd"
     class="b"
     d="m375.4 328.2l47.9-37.9h-5.6l4.4-2.8 144.6-143.3 5.6-7.6v7.5l36.8-47.5z"
     id="path30"
     style="fill:#ffffff;stroke:#ffffff;stroke-opacity:1" />
  <path
     fill-rule="evenodd"
     class="b"
     d="m454.9 407.2l109-89.9 8.1-14.3v12.5l25.8-25.2h-10.6l17.1-9.6 85.7-106.6z"
     id="path31"
     style="fill:#ffffff;stroke:#ffffff;stroke-opacity:1" />
  <path
     fill-rule="evenodd"
     class="b"
     d="m470.9 423.2l95.7-79.4 5.3-10.9 0.1 11.9 54.7-54.3h-9.8l14.3-8.2 74.7-92.2z"
     id="path32"
     style="fill:#ffffff;stroke:#ffffff;stroke-opacity:1" />
  <path
     fill-rule="evenodd"
     class="b"
     d="m486.2 439l80.6-66.5 5.2-10.1v10.7l83.2-82.8h-8l11.8-6.4 62.8-78.1z"
     id="path33"
     style="fill:#ffffff;stroke:#ffffff;stroke-opacity:1" />
  <path
     fill-rule="evenodd"
     class="b"
     d="m501.8 454.5l66.2-53.9 4-8v8.8l112.1-110.8h-8.5l11.4-6.2 50.4-63.3z"
     id="path34"
     style="fill:#ffffff;stroke:#ffffff;stroke-opacity:1" />
  <path
     fill-rule="evenodd"
     class="b"
     d="m518.2 469.9l50-40.6 3.8-6.9v7l140.5-139.1h-6.3l9.3-5.6 37.8-47.7z"
     id="path35"
     style="fill:#ffffff;stroke:#ffffff;stroke-opacity:1" />
  <path
     fill-rule="evenodd"
     class="b"
     d="m533.9 485.7l34.2-27.6 3.9-6.4v5.5l168.7-166.7-4.9 0.1 6-3.1 27.7-35.1z"
     id="path36"
     style="fill:#ffffff;stroke:#ffffff;stroke-opacity:1" />
  <path
     class="b"
     d="m550.2 501.3l19.7-15.9 2.1-4.2v4.3l196.9-195.1h-3.1l3.9-2.1 15.5-19.9z"
     id="path37"
     style="fill:#ffffff;stroke:#ffffff;stroke-opacity:1" />
  <path
     fill-rule="evenodd"
     class="b"
     d="m359.4 312.5l28.8-22.2h-2.5l186.6-185.1v2.9l20.8-27z"
     id="path38"
     style="fill:#ffffff;stroke:#ffffff;stroke-opacity:1" />
  <path
     fill-rule="evenodd"
     class="b"
     d="m407.2 359.8l85.2-69.5h-10.7l8.8-5.7 76-74.8 5.8-9.3v13.5l68.6-85.9z"
     id="path39"
     style="fill:#ffffff;stroke:#ffffff;stroke-opacity:1" />
  <path
     class="a"
     d="m158.7 259.3l1135.8-1125.9"
     id="path40"
     style="fill:#ffffff;stroke:#ffffff;stroke-opacity:1" />
  <path
     class="a"
     d="m142.6 243.4l1119.8-1110"
     id="path41"
     style="fill:#ffffff;stroke:#ffffff;stroke-opacity:1" />
  <path
     class="a"
     d="m126.7 227.7l1103.9-1094.3"
     id="path42"
     style="fill:#ffffff;stroke:#ffffff;stroke-opacity:1" />
  <path
     class="a"
     d="m111 212.2l1088.2-1078.8"
     id="path43"
     style="fill:#ffffff;stroke:#ffffff;stroke-opacity:1" />
  <path
     fill-rule="evenodd"
     class="c"
     d="m1015.5 449.9c0 26.2-13.5 51.7-44.6 50.3h-18.4v-0.1h-9.3v-100.1h27.7q1.5-0.1 2.9 0c29.6 0.3 40.2 22.3 41.7 49.9zm-51.1 30.9h8.4c14.2 0.8 19.9-14 19.9-30.4v-0.1c0-17.6-5.7-31.3-19.8-31.3h-8.5z"
     id="path44"
     style="fill:#ffffff;stroke:#ffffff;stroke-opacity:1" />
  <path
     fill-rule="evenodd"
     class="c"
     d="m818.1 441.4q0.2 2.7 0.3 5.5 0 1.1 0 2.2c0 29.2-14.2 53.2-39 52.9-24.8 0.3-39.1-23.4-39.1-52.6 0-29 13-51.9 38.7-51.6v-0.2c23.6-0.5 36.9 18.4 39.1 43.8zm-55.6 7.9c0 18.9 4.8 33.1 16.7 33.4 12 0.3 16.9-14.6 16.9-33.6h-0.1q0.1-8.6-1.1-15.2c-2.1-10-7-17.2-15.4-17.5q-0.2 0-0.4 0c-11.7-0.2-16.6 14.1-16.6 32.9z"
     id="path45"
     style="fill:#ffffff;stroke:#ffffff;stroke-opacity:1" />
  <path
     fill-rule="evenodd"
     class="c"
     d="m1098.5 444.5q0.1 1.5 0.2 3 0 1.1 0 2.2c0 29.2-14.2 53.2-39.1 52.8-24.7 0.4-39-23.3-39-52.5 0-29 13-51.9 38.6-51.6v-0.2c24.3-0.5 37.8 19.6 39.3 46.3zm-56.1 5.4c0 18.9 4.9 33.1 16.8 33.4 11.9 0.3 16.8-14.6 16.8-33.6h0.1q0-1.1 0-2.2c-0.3-16.7-5-30.3-16.9-30.5-11.9-0.3-16.8 13.9-16.8 32.9z"
     id="path46"
     style="fill:#ffffff;stroke:#ffffff;stroke-opacity:1" />
  <path
     class="c"
     d="m827.2 399.7h21.9v80.1h24.7v20.3h-46.6z"
     id="path47"
     style="fill:#ffffff;stroke:#ffffff;stroke-opacity:1" />
  <path
     class="c"
     d="m685.3 399.8h55.2v20h-16.8v80.3h-21.7v-80.3h-16.7z"
     id="path48"
     style="fill:#ffffff;stroke:#ffffff;stroke-opacity:1" />
  <path
     class="c"
     d="m883 399.8h48.5v19h-26.8v18.8h26.8v18.8h-26.8v24h26.8v19.7h-48.5z"
     id="path49"
     style="fill:#ffffff;stroke:#ffffff;stroke-opacity:1" />
  <path
     class="c"
     d="m160 399.7h55.5v19.9h-16.8v80.3h-21.7v-80.3h-17z"
     id="path50"
     style="fill:#ffffff;stroke:#ffffff;stroke-opacity:1" />
  <path
     class="c"
     d="m280.1 399.5h21.8v80.1h24.8v20.3h-46.6z"
     id="path51"
     style="fill:#ffffff;stroke:#ffffff;stroke-opacity:1" />
  <path
     class="c"
     d="m107.1 399.7h48.5v18.9h-26.8v18.8h26.8v18.9h-26.8v23.9h26.8v19.7h-48.5z"
     id="path52"
     style="fill:#ffffff;stroke:#ffffff;stroke-opacity:1" />
  <path
     class="c"
     d="m52 462.8l14.9-63.1h30.3v100.2h-20.8v-73.1l-16.2 73.1h-16.2l-16.8-73.4v73.4h-21.1v-100.2h30.6z"
     id="path53"
     style="fill:#ffffff;stroke:#ffffff;stroke-opacity:1" />
  <path
     fill-rule="evenodd"
     class="c"
     d="m455.4 431.5c-0.8 14.5-7.8 23.6-20.4 27.5l26.2 41.1h-25.2l-23.7-40.4v40.6h-21.9v-100.5h35.7q0.8 0 1.6 0c16.2 0.1 27.7 15 27.7 31.7zm-43.1 11.9h9.9c1.7 0 3.3-0.4 4.7-1.1 1.5-0.6 2.8-1.6 3.9-2.8 1.1-1.1 2-2.5 2.5-4 0.6-1.6 0.8-3.2 0.7-4.8 0.2-1.5 0-3.1-0.5-4.6-0.5-1.5-1.3-2.9-2.4-4.1-1-1.2-2.3-2.2-3.8-2.9-1.4-0.6-3-1-4.6-1.1h-10.4z"
     id="path54"
     style="fill:#ffffff;stroke:#ffffff;stroke-opacity:1" />
  <path
     class="c"
     d="m219.5 399.7h55.2v19.9h-16.8v80.3h-21.7v-80.3h-16.7z"
     id="path55"
     style="fill:#ffffff;stroke:#ffffff;stroke-opacity:1" />
  <path
     class="c"
     d="m332.9 399.7h48.5v18.9h-26.9v18.8h26.9v18.9h-26.9v23.9h26.9v19.7h-48.5z"
     id="path56"
     style="fill:#ffffff;stroke:#ffffff;stroke-opacity:1" />
</svg>
